<svg xmlns="http://www.w3.org/2000/svg" viewBox="0 0 64 64" role="img" aria-label="Fresh Face Studio">
  <title>Fresh Face Studio</title>
  <rect width="64" height="64" rx="12.00" ry="12.00" fill="#F5EDE3"/>
  <g fill="#DF7D65">
    <path transform="translate(-1.763 56.000) scale(0.06857 -0.06857)" d="M538 700 534 525H501Q504 584 486.5 614.5Q469 645 438.5 655.5Q408 666 370 665L297 663Q263 662 247.5 649.0Q232 636 228.0 611.5Q224 587 222 552L212 368H290Q326 369 348.0 375.0Q370 381 381.5 401.0Q393 421 395 462H428L417 243H384Q386 284 376.5 302.5Q367 321 345.5 326.0Q324 331 288 331Q269 331 249.5 330.5Q230 330 210 328L199 119Q198 92 196.0 72.5Q194 53 192 40Q209 41 226.0 41.5Q243 42 260.0 43.0Q277 44 294 44L292 0H41L43 33Q81 35 96.0 50.5Q111 66 114.0 93.5Q117 121 118 156L142 588Q143 608 145.0 626.5Q147 645 149 660Q131 659 112.5 658.0Q94 657 76 656L78 700Z"/>
    <path transform="translate(26.060 56.000) scale(0.06857 -0.06857)" d="M538 700 534 525H501Q504 584 486.5 614.5Q469 645 438.5 655.5Q408 666 370 665L297 663Q263 662 247.5 649.0Q232 636 228.0 611.5Q224 587 222 552L212 368H290Q326 369 348.0 375.0Q370 381 381.5 401.0Q393 421 395 462H428L417 243H384Q386 284 376.5 302.5Q367 321 345.5 326.0Q324 331 288 331Q269 331 249.5 330.5Q230 330 210 328L199 119Q198 92 196.0 72.5Q194 53 192 40Q209 41 226.0 41.5Q243 42 260.0 43.0Q277 44 294 44L292 0H41L43 33Q81 35 96.0 50.5Q111 66 114.0 93.5Q117 121 118 156L142 588Q143 608 145.0 626.5Q147 645 149 660Q131 659 112.5 658.0Q94 657 76 656L78 700Z"/>
  </g>
</svg>
